{"accessors":[{"bufferView":0,"componentType":5123,"count":1608,"max":[1607],"min":[0],"name":"buffer-0-accessor-indices-buffer-0-mesh-0","type":"SCALAR"},{"bufferView":2,"componentType":5126,"count":1608,"max":[0.1995040029287338,0.3655470013618469,1.174406051635742],"min":[-0.1676920056343079,0,-1.14109194278717],"name":"buffer-0-accessor-position-buffer-0-mesh-0","type":"VEC3"},{"bufferView":2,"byteOffset":19296,"componentType":5126,"count":1608,"max":[0.9621970057487488,0.8625578880310059,0.8651723861694336],"min":[-0.955132782459259,-0.9420602917671204,-0.8783753514289856],"name":"buffer-0-accessor-normal-buffer-0-mesh-0","type":"VEC3"},{"bufferView":1,"componentType":5126,"count":1608,"max":[1,0],"min":[0,-1],"name":"buffer-0-accessor-texcoord-buffer-0-mesh-0","type":"VEC2"},{"bufferView":3,"componentType":5126,"count":0,"max":[0,0,0,0],"min":[0,0,0,0],"name":"buffer-0-accessor-color-buffer-0-mesh-0","type":"VEC4"},{"bufferView":0,"byteOffset":3216,"componentType":5123,"count":816,"max":[815],"min":[0],"name":"buffer-0-accessor-indices-buffer-0-mesh-0","type":"SCALAR"},{"bufferView":2,"byteOffset":38592,"componentType":5126,"count":816,"max":[0.4641169905662537,0.3568769991397858,1.396816968917847],"min":[-0.4641169905662537,-0.3541080057621002,-1.401962995529175],"name":"buffer-0-accessor-position-buffer-0-mesh-0","type":"VEC3"},{"bufferView":2,"byteOffset":48384,"componentType":5126,"count":816,"max":[0.9999810457229614,0.9359158277511597,0.8014711141586304],"min":[-0.9999810457229614,-0.997887134552002,-0.8491367697715759],"name":"buffer-0-accessor-normal-buffer-0-mesh-0","type":"VEC3"},{"bufferView":1,"byteOffset":12864,"componentType":5126,"count":816,"max":[0.9889900088310242,0],"min":[0,-0.9448279738426208],"name":"buffer-0-accessor-texcoord-buffer-0-mesh-0","type":"VEC2"},{"bufferView":3,"componentType":5126,"count":0,"max":[0,0,0,0],"min":[0,0,0,0],"name":"buffer-0-accessor-color-buffer-0-mesh-0","type":"VEC4"},{"bufferView":0,"byteOffset":4848,"componentType":5123,"count":528,"max":[527],"min":[0],"name":"buffer-0-accessor-indices-buffer-0-mesh-0","type":"SCALAR"},{"bufferView":2,"byteOffset":58176,"componentType":5126,"count":528,"max":[0.2224300056695938,0.3137759864330292,1.335999011993408],"min":[-0.2224300056695938,-0.1310839951038361,-1.335999011993408],"name":"buffer-0-accessor-position-buffer-0-mesh-0","type":"VEC3"},{"bufferView":2,"byteOffset":64512,"componentType":5126,"count":528,"max":[0.9486822485923767,0.9486821889877319,0.9045321345329285],"min":[-0.9486822485923767,-0.9486821889877319,-0.9045321345329285],"name":"buffer-0-accessor-normal-buffer-0-mesh-0","type":"VEC3"},{"bufferView":1,"byteOffset":19392,"componentType":5126,"count":528,"max":[0.875,0],"min":[0,-1],"name":"buffer-0-accessor-texcoord-buffer-0-mesh-0","type":"VEC2"},{"bufferView":3,"componentType":5126,"count":0,"max":[0,0,0,0],"min":[0,0,0,0],"name":"buffer-0-accessor-color-buffer-0-mesh-0","type":"VEC4"},{"bufferView":0,"byteOffset":5904,"componentType":5123,"count":1608,"max":[1607],"min":[0],"name":"buffer-0-accessor-indices-buffer-0-mesh-0","type":"SCALAR"},{"bufferView":2,"byteOffset":70848,"componentType":5126,"count":1608,"max":[0.1995040029287338,0.4023370146751404,1.174406051635742],"min":[-0.1676920056343079,0,-1.14109194278717],"name":"buffer-0-accessor-position-buffer-0-mesh-0","type":"VEC3"},{"bufferView":2,"byteOffset":90144,"componentType":5126,"count":1608,"max":[0.9607179760932922,0.947174608707428,0.8998397588729858],"min":[-0.9577628374099731,-0.8475390672683716,-0.8815657496452332],"name":"buffer-0-accessor-normal-buffer-0-mesh-0","type":"VEC3"},{"bufferView":1,"byteOffset":23616,"componentType":5126,"count":1608,"max":[1,0],"min":[0,-1],"name":"buffer-0-accessor-texcoord-buffer-0-mesh-0","type":"VEC2"},{"bufferView":3,"componentType":5126,"count":0,"max":[0,0,0,0],"min":[0,0,0,0],"name":"buffer-0-accessor-color-buffer-0-mesh-0","type":"VEC4"}],"asset":{"extras":{"GOOGLE_processor_version":294144208},"generator":"Obj2GltfConverter","version":"2.0"},"bufferViews":[{"buffer":0,"byteLength":9120,"byteStride":0,"name":"buffer-0-bufferview-ushort","target":34963},{"buffer":0,"byteLength":36480,"byteOffset":9120,"byteStride":8,"name":"buffer-0-bufferview-vec2","target":34962},{"buffer":0,"byteLength":109440,"byteOffset":45600,"byteStride":12,"name":"buffer-0-bufferview-vec3","target":34962},{"buffer":0,"byteLength":1,"name":"buffer-0-bufferview-vec4"}],"buffers":[{"byteLength":155040,"name":"buffer-0","uri":"data:application/octet-stream;base64,"}],"cameras":[{"perspective":{"yfov":0.7853981633974483,"znear":0.1000000014901161},"type":"perspective"}],"extensions":{"KHR_lights_punctual":{"lights":[{"color":[1,0.9333333333333333,0.8666666666666667],"intensity":0.25,"name":"headLight","type":"directional"},{"color":[1,0.9333333333333333,0.8666666666666667],"intensity":0.324999988079071,"name":"keyLight","type":"directional"}]}},"extensionsUsed":["GOOGLE_backgrounds","GOOGLE_camera_settings","KHR_lights_punctual"],"extras":{"GOOGLE_initial_camera_motion":{"motionPath":"FULL_ROTATION"},"GOOGLE_lighting_rig":{"disableShadows":false}},"images":[{"mimeType":"image/png","name":"lambert5SG-image","uri":"data:application/octet-stream;base64,"}],"materials":[{"doubleSided":true,"name":"lambert4SG","pbrMetallicRoughness":{"baseColorFactor":[0.5,0.02,0.03,1],"metallicFactor":0,"roughnessFactor":0.9699476628648295}},{"doubleSided":true,"name":"lambert5SG","pbrMetallicRoughness":{"baseColorTexture":{"index":0},"metallicFactor":0,"roughnessFactor":0.9699476628648295}},{"doubleSided":true,"name":"lambert2SG","pbrMetallicRoughness":{"baseColorFactor":[0.62,0.09,0.04,1],"metallicFactor":0,"roughnessFactor":0.9699476628648295}},{"doubleSided":true,"name":"lambert3SG","pbrMetallicRoughness":{"baseColorFactor":[0.96,0.51,0.05,1],"metallicFactor":0,"roughnessFactor":0.9699476628648295}}],"meshes":[{"name":"buffer-0-mesh-0","primitives":[{"attributes":{"NORMAL":2,"POSITION":1,"TEXCOORD_0":3},"indices":0,"material":0},{"attributes":{"NORMAL":7,"POSITION":6,"TEXCOORD_0":8},"indices":5,"material":1},{"attributes":{"NORMAL":12,"POSITION":11,"TEXCOORD_0":13},"indices":10,"material":2},{"attributes":{"NORMAL":17,"POSITION":16,"TEXCOORD_0":18},"indices":15,"material":3}]}],"nodes":[{"mesh":0,"name":"node-0"},{"children":[2]},{"children":[3],"extras":{"isTransformNode":1},"translation":[-0.006287765837328326,0.004437143535889764,0.005143099378641814]},{"children":[0],"translation":[0.006287765837328326,-0.004437143535889764,-0.005143099378641814]},{"camera":0,"children":[5],"rotation":[-0.2566621870869576,0.3016573223207342,0.0846805953175519,0.9143066107092793],"translation":[1.865691856566289,1.92149054670712,2.533401521523495]},{"extensions":{"KHR_lights_punctual":{"light":0}},"extras":{"isHeadLight":1},"name":"headLightNode","translation":[-1.610556561576559,0.8052782807882797,0.8052782807882797]},{"extensions":{"KHR_lights_punctual":{"light":1}},"extras":{"isKeyLight":1},"name":"keyLightNode","rotation":[-0.7505326882858236,-0.3752663441429118,0,0.5439447166468927],"scale":[0,0,1.626662127192325],"translation":[-1.61544405342915,3.472396211678809,-1.59697331617934]}],"samplers":[{"name":"lambert5SG-sampler","wrapS":10497,"wrapT":10497}],"scene":0,"scenes":[{"extensions":{"GOOGLE_backgrounds":{"color":[1,0.7176470588235294,0.3019607843137255]},"GOOGLE_camera_settings":{}},"extras":{"GOOGLE_camera_index":{"cameraIndex":0,"nodeIndex":4},"GOOGLE_geometry_data":{"stats":{"centroid":[0.01121807376317488,0.2190719572941593,0.02968881101298489],"radius":1.610556561576559,"stdev":0.7629437793390933},"visualCenterPoint":[-0.006287765837328326,0.004437143535889764,0.005143099378641814]},"GOOGLE_hemi_light":{"groundColor":[1,0.7176470588235294,0.3019607843137255]}},"name":"scene-0","nodes":[1,4,6]}],"textures":[{"name":"lambert5SG-texture","sampler":0,"source":0}]}