{"accessors":[{"bufferView":0,"byteOffset":0,"componentType":5123,"count":1284,"max":[793],"min":[0],"name":"buffer-0-group-0-mesh-0-indices","type":"SCALAR"},{"bufferView":1,"byteOffset":0,"componentType":5126,"count":794,"max":[1.12921404838562,1.384686946868896,1.125547051429749],"min":[-1.124266028404236,0,-1.126078963279724],"name":"buffer-0-group-0-mesh-0-position","type":"VEC3"},{"bufferView":1,"byteOffset":9528,"componentType":5126,"count":794,"max":[1,1,1],"min":[-1,-1,-1],"name":"buffer-0-group-0-mesh-0-normal","type":"VEC3"},{"bufferView":2,"byteOffset":0,"componentType":5126,"count":794,"max":[0.953656017780304,-0.01142800040543079],"min":[0.01142800040543079,-0.9885720014572144],"name":"buffer-0-group-0-mesh-0-texcoord","type":"VEC2"}],"asset":{"extras":{"GOOGLE_processor_version":294144208},"generator":"Obj2GltfConverter","version":"2.0"},"bufferViews":[{"buffer":0,"byteLength":2568,"byteOffset":0,"name":"buffer-0-bufferview-ushort","target":34963},{"buffer":0,"byteLength":19056,"byteOffset":2568,"byteStride":12,"name":"buffer-0-bufferview-vec3","target":34962},{"buffer":0,"byteLength":6352,"byteOffset":21624,"byteStride":8,"name":"buffer-0-bufferview-vec2","target":34962}],"buffers":[{"byteLength":27976,"name":"buffer-0","uri":"data:application/octet-stream;base64,"}],"cameras":[{"perspective":{"yfov":0.7853981633974483,"znear":0.1000000014901161},"type":"perspective"}],"extensions":{"GOOGLE_lights_image_based":{"lights":[{"intensity":0.300000011920929,"pmremTexture":{"index":1},"rotation":76}]},"KHR_lights_punctual":{"lights":[{"color":[1,0.9333333333333333,0.8666666666666667],"intensity":0.25,"name":"headLight","type":"directional"},{"color":[1,0.9333333333333333,0.8666666666666667],"intensity":0.324999988079071,"name":"keyLight","type":"directional"}]}},"extensionsUsed":["GOOGLE_backgrounds","GOOGLE_lights_image_based","GOOGLE_camera_settings","KHR_lights_punctual"],"extras":{"GOOGLE_initial_camera_motion":{"motionPath":"FULL_ROTATION"},"GOOGLE_lighting_rig":{"disableShadows":false}},"images":[{"mimeType":"image/png","name":"burger-diffuse-image","uri":"data:application/octet-stream;base64,"},{"uri":"data:application/octet-stream;base64,"},{"uri":"data:application/octet-stream;base64,"}],"materials":[{"alphaCutoff":0.5,"alphaMode":"OPAQUE","doubleSided":true,"emissiveFactor":[0,0,0],"name":"burger","pbrMetallicRoughness":{"baseColorFactor":[0.800000011920929,0.800000011920929,0.800000011920929,1],"baseColorTexture":{"index":1,"texCoord":0},"metallicFactor":0,"roughnessFactor":0.965271532535553}}],"meshes":[{"name":"buffer-0-mesh-0","primitives":[{"attributes":{"NORMAL":2,"POSITION":1,"TEXCOORD_0":3},"indices":0,"material":0,"mode":4}]}],"nodes":[{"mesh":0,"name":"node-0"},{"children":[2]},{"children":[3],"extras":{"isTransformNode":1},"translation":[-0.001169984025985062,0.6546282508242611,0.005367744266986849]},{"children":[0],"translation":[0.001169984025985062,-0.6546282508242611,-0.005367744266986849]},{"camera":0,"children":[5],"rotation":[0.005531594770032791,0.9901246949250364,0.1339831142382404,-0.04087805105342486],"translation":[-0.3994007171753434,1.98600181054639,-4.807773620494531]},{"extensions":{"KHR_lights_punctual":{"light":0}},"extras":{"isHeadLight":1},"name":"headLightNode","translation":[-1.39491275019058,0.6974563750952899,0.6974563750952899]},{"extensions":{"KHR_lights_punctual":{"light":1}},"extras":{"isKeyLight":1},"name":"keyLightNode","rotation":[-0.7505326882858236,-0.3752663441429118,0,0.5439447166468927],"scale":[0,0,1.408861877692486],"translation":[-1.420067157900637,3.407718567764527,-1.399746634324976]}],"samplers":[{"name":"burger-diffuse-sampler","wrapS":10497,"wrapT":10497}],"scene":0,"scenes":[{"extensions":{"GOOGLE_backgrounds":{"color":[0.3058823529411765,0.203921568627451,0.1803921568627451]},"GOOGLE_camera_settings":{"pivot":[-0.001287178383617693,0.6545277985177167,0.005447009840585437]},"GOOGLE_lights_image_based":{"light":0}},"extras":{"GOOGLE_camera_index":{"cameraIndex":0,"nodeIndex":4},"GOOGLE_geometry_data":{"stats":{"centroid":[-0.01120528020815084,0.589994812379556,0.009115243367509159],"radius":1.39491275019058,"stdev":1.037570334381553},"visualCenterPoint":[-0.001169984025985062,0.6546282508242611,0.005367744266986849]},"GOOGLE_hemi_light":{"groundColor":[0.3058823529411765,0.203921568627451,0.1803921568627451]}},"name":"scene-0","nodes":[1,4,6]}],"textures":[{"name":"burger-diffuse-texture","sampler":0,"source":0},{"sampler":0,"source":2}]}